<svg xmlns="http://www.w3.org/2000/svg" width="400" height="225" viewBox="0 0 400 225">
  <rect width="400" height="225" fill="#0f0f13"/>
  <rect x="60" y="20" width="280" height="185" rx="12" fill="#1a1a24"/>
  <!-- Tiles -->
  <rect x="75" y="35" width="58" height="58" rx="8" fill="#3b3254"/>
  <text x="104" y="71" font-family="Arial" font-weight="bold" font-size="20" fill="#e2e8f0" text-anchor="middle">2</text>
  <rect x="141" y="35" width="58" height="58" rx="8" fill="#4a3a6b"/>
  <text x="170" y="71" font-family="Arial" font-weight="bold" font-size="20" fill="#e2e8f0" text-anchor="middle">4</text>
  <rect x="207" y="35" width="58" height="58" rx="8" fill="#7c3aed"/>
  <text x="236" y="71" font-family="Arial" font-weight="bold" font-size="18" fill="#fff" text-anchor="middle">16</text>
  <rect x="273" y="35" width="58" height="58" rx="8" fill="#a78bfa"/>
  <text x="302" y="71" font-family="Arial" font-weight="bold" font-size="18" fill="#fff" text-anchor="middle">32</text>
  <!-- Row 2 -->
  <rect x="75" y="101" width="58" height="58" rx="8" fill="#6d28d9"/>
  <text x="104" y="137" font-family="Arial" font-weight="bold" font-size="18" fill="#fff" text-anchor="middle">8</text>
  <rect x="141" y="101" width="58" height="58" rx="8" fill="#f59e0b"/>
  <text x="170" y="137" font-family="Arial" font-weight="bold" font-size="16" fill="#fff" text-anchor="middle">512</text>
  <rect x="207" y="101" width="58" height="58" rx="8" fill="#ef4444"/>
  <text x="236" y="137" font-family="Arial" font-weight="bold" font-size="14" fill="#fff" text-anchor="middle">1024</text>
  <rect x="273" y="101" width="58" height="58" rx="8" fill="#10b981"/>
  <text x="302" y="137" font-family="Arial" font-weight="bold" font-size="14" fill="#fff" text-anchor="middle">2048</text>
  <!-- Title -->
  <text x="200" y="210" font-family="Arial" font-weight="bold" font-size="18" fill="#a78bfa" text-anchor="middle">🧩 2048</text>
</svg>
