<svg xmlns="http://www.w3.org/2000/svg" width="400" height="225" viewBox="0 0 400 225">
  <rect width="400" height="225" fill="#0f0f13"/>
  <!-- Bricks -->
  <rect x="30" y="25" width="52" height="18" rx="4" fill="#f87171"/>
  <rect x="88" y="25" width="52" height="18" rx="4" fill="#f87171"/>
  <rect x="146" y="25" width="52" height="18" rx="4" fill="#f87171"/>
  <rect x="204" y="25" width="52" height="18" rx="4" fill="#f87171"/>
  <rect x="262" y="25" width="52" height="18" rx="4" fill="#f87171"/>
  <rect x="320" y="25" width="52" height="18" rx="4" fill="#f87171"/>
  <rect x="30" y="50" width="52" height="18" rx="4" fill="#fb923c"/>
  <rect x="88" y="50" width="52" height="18" rx="4" fill="#fb923c"/>
  <rect x="146" y="50" width="52" height="18" rx="4" fill="#fb923c"/>
  <rect x="204" y="50" width="52" height="18" rx="4" fill="#fb923c"/>
  <rect x="262" y="50" width="52" height="18" rx="4" fill="#fb923c"/>
  <rect x="320" y="50" width="52" height="18" rx="4" fill="#fb923c"/>
  <rect x="30" y="75" width="52" height="18" rx="4" fill="#fbbf24"/>
  <rect x="88" y="75" width="52" height="18" rx="4" fill="#fbbf24"/>
  <!-- missing bricks to show destroyed -->
  <rect x="204" y="75" width="52" height="18" rx="4" fill="#fbbf24"/>
  <rect x="262" y="75" width="52" height="18" rx="4" fill="#fbbf24"/>
  <rect x="320" y="75" width="52" height="18" rx="4" fill="#fbbf24"/>
  <rect x="30" y="100" width="52" height="18" rx="4" fill="#34d399"/>
  <rect x="88" y="100" width="52" height="18" rx="4" fill="#34d399"/>
  <rect x="146" y="100" width="52" height="18" rx="4" fill="#34d399"/>
  <rect x="262" y="100" width="52" height="18" rx="4" fill="#34d399"/>
  <!-- Ball -->
  <circle cx="195" cy="140" r="9" fill="#a78bfa"/>
  <!-- Paddle -->
  <rect x="140" y="175" width="100" height="14" rx="7" fill="#7c3aed"/>
  <text x="200" y="215" font-family="Arial" font-weight="bold" font-size="18" fill="#a78bfa" text-anchor="middle">🧱 Breakout</text>
</svg>
